<svg width="54" height="53" viewBox="0 0 54 53" fill="none" xmlns="http://www.w3.org/2000/svg">
<path d="M45.9278 7.76171C40.9261 2.75652 34.2759 0 27.2024 0C20.1289 0 13.4787 2.75652 8.47704 7.76171C3.47533 12.7669 0.720825 19.4216 0.720825 26.5C0.720825 33.5784 3.47533 40.2332 8.47704 45.2383C13.4787 50.2434 20.1289 53 27.2024 53C34.2759 53 40.9261 50.2435 45.9278 45.2383C50.9295 40.2331 53.684 33.5784 53.684 26.5C53.684 19.4216 50.9295 12.7668 45.9278 7.76171ZM27.2024 47.7985C15.4664 47.7985 5.91867 38.2441 5.91867 26.5C5.91867 26.4807 5.91929 26.4617 5.91939 26.4427C5.91939 26.4378 5.91867 26.4331 5.91867 26.4283C5.91867 26.4201 5.9197 26.4122 5.91991 26.4041C5.97153 14.8008 15.3422 5.36045 26.9132 5.20518C26.9374 5.20404 26.9614 5.20156 26.9859 5.20156C27.0006 5.20156 27.0149 5.20332 27.0295 5.20373C27.0872 5.20332 27.1447 5.20156 27.2025 5.20156C38.9385 5.20156 48.4863 14.756 48.4863 26.5001C48.4863 38.2442 38.9384 47.7985 27.2024 47.7985Z" fill="white"/>
<path d="M43.3693 27.7794C42.5039 27.7794 41.8024 27.0773 41.8024 26.2113C41.8024 25.3453 42.5039 24.6433 43.3693 24.6433H45.2581C44.371 15.9401 37.3176 9.03591 28.5528 8.3877V10.0331C28.5528 10.8991 27.8512 11.6011 26.9858 11.6011C26.1204 11.6011 25.4188 10.8991 25.4188 10.0331V8.42517C16.7838 9.27193 9.90548 16.1994 9.12727 24.8599H10.8188C11.6842 24.8599 12.3857 25.562 12.3857 26.428C12.3857 27.294 11.6842 27.996 10.8188 27.996H9.11444C9.83493 36.796 16.8511 43.8386 25.6354 44.5939V42.6061C25.6354 41.7401 26.337 41.0381 27.2024 41.0381C28.0678 41.0381 28.7694 41.7401 28.7694 42.6061V44.5939C37.6256 43.8324 44.6845 36.6801 45.3066 27.7794H43.3693ZM33.5456 22.3699L28.3105 27.6087C28.0166 27.9028 27.6181 28.068 27.2025 28.068C26.787 28.068 26.3883 27.9028 26.0945 27.6087L16.9819 18.4897C16.3699 17.8774 16.3699 16.8846 16.9819 16.2722C17.5937 15.6598 18.5859 15.6598 19.1978 16.2722L27.2026 24.2824L31.3298 20.1523C31.9417 19.54 32.9338 19.54 33.5458 20.1523C34.1576 20.7646 34.1576 21.7576 33.5456 22.3699Z" fill="white"/>
</svg>
