<svg width="67" height="54" viewBox="0 0 67 54" fill="none" xmlns="http://www.w3.org/2000/svg">
<path fill-rule="evenodd" clip-rule="evenodd" d="M45.4581 53V28.4003L66.7313 16.1097V39.7676C66.7313 40.3651 66.4332 40.8817 65.9161 41.1804L45.4581 53ZM19.8679 40.7737H2.7037C1.3134 40.7737 0.186157 39.6457 0.186157 38.2544C0.186157 36.8632 1.3134 35.7351 2.7037 35.7351H19.7784C22.7308 35.7351 22.7308 31.0168 19.7784 31.0168H9.51769C8.12739 31.0168 7.00002 29.8887 7.00002 28.4975C7.00002 27.1062 8.12739 25.9782 9.51769 25.9782H17.5429C20.4953 25.9782 20.4953 21.2598 17.5429 21.2598H2.70383C1.31353 21.2598 0.186287 20.1318 0.186287 18.7405C0.186287 17.3493 1.31353 16.2213 2.70383 16.2213H19.9494L41.0301 28.4007V53L19.8679 40.7737ZM21.9549 12.2762L43.244 24.576L64.5331 12.2761L43.2848 0H29.3436C27.9533 0 26.8261 1.12802 26.8261 2.51929C26.8261 3.91055 27.9533 5.03858 29.3436 5.03858H32.2898C32.5604 5.03858 32.7872 5.21273 32.8572 5.47428C32.9272 5.73583 32.8179 6.00012 32.5835 6.13564L21.9549 12.2762ZM20.743 0C22.1333 0 23.2606 1.12802 23.2606 2.51929C23.2606 3.91055 22.1333 5.03858 20.743 5.03858H5.44063C4.05033 5.03858 2.92296 3.91055 2.92296 2.51929C2.92296 1.12802 4.0502 0 5.44063 0H20.743Z" fill="#444444"/>
<path d="M67.0001 15.5L45.0001 28.5V53.5C51.6667 49.6667 65.2001 41.9 66.0001 41.5C66.8001 41.1 67.0001 40.3333 67.0001 40V15.5Z" fill="#FF3811"/>
</svg>
