<svg width="46" height="53" viewBox="0 0 46 53" fill="none" xmlns="http://www.w3.org/2000/svg">
<path fill-rule="evenodd" clip-rule="evenodd" d="M45.6967 8.71187V14.3928H41.6914C37.2324 14.3972 32.8561 13.1893 29.0299 10.8981L23.9653 7.83406C23.6707 7.65577 23.333 7.56152 22.9888 7.56152C22.6445 7.56152 22.3068 7.65577 22.0122 7.83406L16.9642 10.8816C13.137 13.1704 8.76129 14.3781 4.30269 14.3762H0.313904V8.71187C0.313885 8.20957 0.512143 7.7276 0.865522 7.37087C1.2189 7.01415 1.69879 6.81155 2.20072 6.80718H4.31924C9.12024 6.80835 13.8303 5.49686 17.9407 3.01437L23.0053 0L28.0534 3.03094C32.1664 5.50722 36.8747 6.81822 41.6748 6.82374H43.8099C44.3077 6.83226 44.7826 7.03392 45.1347 7.38619C45.4867 7.73845 45.6882 8.21377 45.6967 8.71187Z" fill="#FF3811"/>
<path fill-rule="evenodd" clip-rule="evenodd" d="M41.6914 18.2189C36.5476 18.2165 31.5015 16.8138 27.0934 14.1611L23.0053 11.6768L18.9172 14.1114C14.5132 16.7793 9.46731 18.199 4.31924 18.2189H0.313904V23.1877C0.325496 28.9374 1.97203 34.565 5.06112 39.413C8.1502 44.261 12.5542 48.1292 17.7586 50.5655L23.0053 53.0002L28.2189 50.5655C33.4307 48.1356 37.8427 44.2699 40.9381 39.4211C44.0335 34.5724 45.6842 28.9414 45.6967 23.1877V18.2189H41.6914ZM23.9653 34.7814C23.6138 35.1195 23.1452 35.3083 22.6577 35.3083C22.1702 35.3083 21.7017 35.1195 21.3502 34.7814L16.0539 29.4814L18.7186 26.8149L22.6908 30.7733L29.3112 24.1483L31.9759 26.8149L23.9653 34.7814Z" fill="#444444"/>
</svg>
