<svg width="77" height="55" viewBox="0 0 77 55" fill="none" xmlns="http://www.w3.org/2000/svg">
<path d="M38.6539 30.7964C30.7176 30.7964 24.2609 37.2575 24.2609 45.1993V54.0627H53.0468V45.1993C53.0468 37.2575 46.5902 30.7964 38.6539 30.7964Z" fill="#FF3811"/>
<path d="M48.6182 20.8243C48.6182 15.3257 44.1487 10.853 38.6539 10.853C33.1591 10.853 28.6895 15.3257 28.6895 20.8243C28.6895 26.3229 33.1591 30.7956 38.6539 30.7956C44.1487 30.7956 48.6182 26.3229 48.6182 20.8243Z" fill="#FF3811"/>
<path d="M25.3681 10.8536C25.3681 5.35497 20.8985 0.882324 15.4037 0.882324C9.90893 0.882324 5.43939 5.35497 5.43939 10.8536C5.43939 16.3522 9.90893 20.8249 15.4037 20.8249C20.8985 20.8249 25.3681 16.3522 25.3681 10.8536Z" fill="#444444"/>
<path d="M61.904 20.8247C56.0546 20.8247 51.0303 24.3481 48.7814 29.3742C53.9948 32.7268 57.4754 38.5508 57.4754 45.1989H76.4446V35.2277C76.4446 27.2858 69.8403 20.8247 61.904 20.8247Z" fill="#444444"/>
<path d="M71.8684 10.8536C71.8684 5.35497 67.3988 0.882324 61.904 0.882324C56.4092 0.882324 51.9397 5.35497 51.9397 10.8536C51.9397 16.3522 56.4092 20.8249 61.904 20.8249C67.3988 20.8249 71.8684 16.3522 71.8684 10.8536Z" fill="#444444"/>
<path d="M28.5263 29.3742C26.2774 24.3481 21.2532 20.8247 15.4037 20.8247C7.46742 20.8247 0.863159 27.2858 0.863159 35.2277V45.1989H19.8323C19.8323 38.5508 23.3129 32.7268 28.5263 29.3742Z" fill="#444444"/>
</svg>
