<svg width="44" height="53" viewBox="0 0 44 53" fill="none" xmlns="http://www.w3.org/2000/svg">
<path d="M11.745 23.612C14.1704 28.9682 19.3629 31.2996 21.9402 31.2996C23.6349 31.2996 26.4602 30.2908 28.8861 28.0779C27.9991 28.1398 27.051 28.1712 26.0379 28.1712C25.8002 28.1712 25.5508 28.1691 25.2843 28.1649C24.7736 28.5585 24.141 28.7804 23.4845 28.7804H21.3259C19.6992 28.7804 18.3759 27.4561 18.3759 25.8283C18.3759 24.2004 19.6992 22.8762 21.3259 22.8762H23.4845C24.2643 22.8762 24.9936 23.1803 25.5346 23.7049C25.7143 23.7069 25.8915 23.7078 26.0653 23.7078C28.8519 23.7078 30.6882 23.452 31.8896 23.1436C31.7337 22.7641 31.6488 22.349 31.6488 21.9155V14.4305C31.6488 13.6519 31.9376 12.9055 32.437 12.3289C32.1705 10.2531 31.6868 8.66831 30.965 7.49927C29.4776 5.09021 26.6098 3.96826 21.9402 3.96826C18.0665 3.96826 15.3914 4.77296 13.7624 6.4283C12.4996 7.71154 11.7679 9.54256 11.4258 12.3079C11.9364 12.8867 12.2317 13.6407 12.2317 14.4305V21.9155C12.2318 22.5383 12.0529 23.1195 11.745 23.612Z" fill="#FF3811"/>
<path d="M6.43761 23.6827H9.02704C10.0019 23.6827 10.7928 22.8915 10.7928 21.9156V14.4306C10.7928 13.7786 10.4389 13.2105 9.91393 12.9043C10.4921 6.77531 12.8556 2.52816 21.9404 2.52816C27.1574 2.52816 30.4141 3.86741 32.1893 6.74247C33.2223 8.41553 33.7192 10.5765 33.9513 12.9135C33.4347 13.2218 33.0879 13.7849 33.0879 14.4305V21.9154C33.0879 22.7569 33.6761 23.4595 34.4632 23.6376C33.3217 24.3847 30.9585 25.1478 26.0653 25.1478C25.669 25.1478 25.2558 25.1428 24.8255 25.1324C24.5737 24.6478 24.0683 24.3162 23.4846 24.3162H21.3262C20.4918 24.3162 19.8152 24.9931 19.8152 25.8282C19.8152 26.6633 20.4918 27.3403 21.3262 27.3403H23.4846C23.9889 27.3403 24.4344 27.0922 24.7087 26.7124C25.1631 26.7239 25.6081 26.7311 26.0381 26.7311C31.5537 26.731 35.0599 25.7889 36.48 23.9197C36.5404 23.8402 36.5956 23.761 36.6458 23.6827H37.4434C38.4184 23.6827 39.2092 22.8915 39.2092 21.9156V14.4306C39.2092 13.4548 38.4186 12.6637 37.4434 12.6637H36.4695C36.1955 9.84003 35.5881 7.43629 34.3387 5.4133C32.0897 1.77069 28.0339 0 21.9402 0C15.8461 0 11.7907 1.77069 9.54164 5.41345C8.2924 7.43643 7.68527 9.83988 7.41113 12.6638H6.43746C5.46222 12.6638 4.6716 13.4548 4.6716 14.4308V21.9157C4.6716 22.8915 5.46236 23.6827 6.43761 23.6827Z" fill="#444444"/>
<path d="M43.2883 45.6928C42.7012 42.0398 41.4925 37.3343 39.0685 35.6624C37.4156 34.5217 31.645 31.4364 29.1809 30.1191L29.1291 30.0914C28.847 29.9406 28.5029 29.9709 28.2515 30.1683C26.9588 31.1837 25.5437 31.8677 24.0455 32.2014C23.7807 32.2603 23.5632 32.4488 23.467 32.7025L21.9403 36.729L20.4136 32.7025C20.3173 32.4486 20.0999 32.2603 19.8351 32.2014C18.3369 31.8677 16.9214 31.1837 15.6286 30.1683C15.3773 29.9707 15.0331 29.9405 14.7512 30.0914C12.3146 31.3941 6.4693 34.5442 4.81899 35.6575C2.02737 37.5395 0.808205 44.3474 0.592203 45.6929C0.570762 45.8264 0.583137 45.963 0.62818 46.0903C0.72805 46.3725 3.2887 53.0001 21.9401 53.0001C40.5913 53.0001 43.1522 46.3725 43.2522 46.0904C43.2974 45.9628 43.3098 45.8262 43.2883 45.6928ZM34.6039 41.4979H27.2167V39.9411H34.6039V41.4979Z" fill="#444444"/>
</svg>
