<svg width="54" height="53" viewBox="0 0 54 53" fill="none" xmlns="http://www.w3.org/2000/svg">
<path d="M21.3353 33.9036C21.5083 33.7306 21.6455 33.5252 21.7392 33.2992C21.8328 33.0731 21.881 32.8308 21.881 32.5861C21.881 32.3413 21.8328 32.099 21.7392 31.8729C21.6455 31.6469 21.5083 31.4415 21.3353 31.2686L20.6839 30.6075L15.4176 25.3375C15.2444 25.1641 15.0382 25.027 14.8114 24.9342C14.5845 24.8415 14.3414 24.795 14.0964 24.7975C13.6053 24.7987 13.1343 24.9926 12.7845 25.3375C12.6105 25.5099 12.4725 25.7152 12.3783 25.9413C12.2841 26.1674 12.2356 26.41 12.2356 26.655C12.2356 26.9 12.2841 27.1426 12.3783 27.3687C12.4725 27.5948 12.6105 27.8 12.7845 27.9725L18.7021 33.9036C19.0527 34.2503 19.5257 34.4447 20.0187 34.4447C20.5116 34.4447 20.9847 34.2503 21.3353 33.9036Z" fill="#FF3811"/>
<path d="M24.6291 29.2942C24.8021 29.1212 24.9393 28.9158 25.033 28.6898C25.1266 28.4637 25.1748 28.2214 25.1748 27.9767C25.1748 27.7319 25.1266 27.4896 25.033 27.2635C24.9393 27.0375 24.8021 26.8321 24.6291 26.6592L23.3171 25.337H23.3078L21.0096 23.0372L18.7021 20.7281C18.3476 20.4077 17.8835 20.2361 17.4059 20.2487C16.9284 20.2613 16.474 20.4572 16.1368 20.7958C15.7996 21.1344 15.6055 21.5898 15.5946 22.0677C15.5837 22.5456 15.7569 23.0094 16.0783 23.3631L16.7296 24.0242L21.9959 29.2942C22.3475 29.6389 22.8202 29.832 23.3125 29.832C23.8047 29.832 24.2774 29.6389 24.6291 29.2942Z" fill="#FF3811"/>
<path d="M31.2073 17.4417L25.941 12.1717C25.585 11.8353 25.114 11.6479 24.6244 11.6479C24.1348 11.6479 23.6638 11.8353 23.3078 12.1717C22.9613 12.5225 22.767 12.9959 22.767 13.4892C22.767 13.9825 22.9613 14.4558 23.3078 14.8067L28.5742 20.0767L31.2073 17.4417Z" fill="#FF3811"/>
<path d="M27.2622 21.3891L21.3353 15.4674C20.9815 15.1268 20.5096 14.9365 20.0187 14.9365C19.5278 14.9365 19.0559 15.1268 18.7021 15.4674C18.5296 15.6396 18.3927 15.8443 18.2994 16.0696C18.206 16.2948 18.1579 16.5363 18.1579 16.7802C18.1579 17.0241 18.206 17.2656 18.2994 17.4909C18.3927 17.7161 18.5296 17.9208 18.7021 18.0931L22.3216 21.715L24.6291 24.0241C24.985 24.3605 25.4561 24.5479 25.9456 24.5479C26.4352 24.5479 26.9063 24.3605 27.2622 24.0241L27.3739 23.8845C27.1993 23.5164 27.1087 23.1141 27.1087 22.7066C27.1087 22.2992 27.1993 21.8969 27.3739 21.5288L27.2622 21.3891Z" fill="#FF3811"/>
<path d="M31.2073 14.8065L32.5192 16.1194C33.2288 15.442 34.1718 15.0641 35.1524 15.0641C36.133 15.0641 37.076 15.442 37.7856 16.1194L40.4187 18.7544L41.6283 17.544C41.8987 17.269 42.2242 17.0547 42.5835 16.915C42.9428 16.7754 43.3276 16.7137 43.7125 16.7339C44.9897 16.8105 46.2674 16.5931 47.4475 16.0983C48.6276 15.6034 49.6786 14.8444 50.5196 13.8796C51.3607 12.9147 51.9695 11.7697 52.2992 10.5326C52.6289 9.29543 52.6708 7.99912 52.4215 6.74327L47.5087 11.6594C47.4067 11.7626 47.2822 11.8406 47.145 11.8875C47.0078 11.9343 46.8616 11.9487 46.7179 11.9295L42.1121 11.2684C41.9124 11.2401 41.7273 11.1476 41.5846 11.0049C41.442 10.8621 41.3495 10.6768 41.3213 10.477L40.6606 5.86805C40.6414 5.72423 40.6558 5.57792 40.7026 5.4406C40.7494 5.30328 40.8274 5.17869 40.9305 5.07662L45.8432 0.160443C44.5883 -0.0889869 43.2928 -0.0471278 42.0566 0.282802C40.8203 0.612732 39.6761 1.22195 38.7119 2.06361C37.7477 2.90528 36.9892 3.95698 36.4947 5.13788C36.0003 6.31877 35.783 7.5974 35.8595 8.87548C35.8806 9.26073 35.8192 9.64604 35.6796 10.0057C35.54 10.3653 35.3254 10.6911 35.0501 10.9611L31.2073 14.8065Z" fill="#444444"/>
<path d="M45.7037 37.1616C44.2975 35.5741 43.4167 33.5902 43.1822 31.4819L42.5123 25.5043C42.3417 24.0314 41.6833 22.658 40.6421 21.603L36.4737 17.441C36.1199 17.1004 35.648 16.9102 35.1571 16.9102C34.6661 16.9102 34.1943 17.1004 33.8405 17.441L29.2348 22.0499C29.0615 22.2244 28.9642 22.4604 28.9642 22.7063C28.9642 22.9523 29.0615 23.1883 29.2348 23.3628C29.7582 23.8858 30.4676 24.1797 31.2073 24.1797C31.947 24.1797 32.6565 23.8858 33.1799 23.3628C33.7118 22.8561 34.4181 22.5735 35.1524 22.5735C35.8868 22.5735 36.593 22.8561 37.125 23.3628C37.3845 23.6217 37.5904 23.9294 37.7308 24.2681C37.8713 24.6068 37.9436 24.9699 37.9436 25.3367C37.9436 25.7034 37.8713 26.0665 37.7308 26.4053C37.5904 26.744 37.3845 27.0516 37.125 27.3106L36.4737 27.9717C35.6015 28.8447 35.1115 30.0286 35.1115 31.2631C35.1115 32.4975 35.6015 33.6815 36.4737 34.5545L37.125 35.2156C37.2983 35.39 37.3955 35.626 37.3955 35.872C37.3955 36.118 37.2983 36.354 37.125 36.5284C37.0401 36.6168 36.9382 36.6871 36.8255 36.7351C36.7128 36.7831 36.5915 36.8079 36.469 36.8079C36.3465 36.8079 36.2253 36.7831 36.1125 36.7351C35.9998 36.6871 35.898 36.6168 35.813 36.5284L35.1524 35.8767C33.9324 34.6535 33.2472 32.9959 33.2472 31.2677C33.2472 29.5396 33.9324 27.882 35.1524 26.6588L35.813 25.9978C35.8997 25.9111 35.9682 25.8079 36.0145 25.6944C36.0609 25.5809 36.0841 25.4593 36.0829 25.3367C36.0841 25.2155 36.0608 25.0952 36.0144 24.9832C35.968 24.8712 35.8996 24.7698 35.813 24.6849C35.6371 24.5146 35.4019 24.4194 35.1571 24.4194C34.9123 24.4194 34.6771 24.5146 34.5011 24.6849C33.7401 25.4416 32.7418 25.913 31.6743 26.0198C30.6068 26.1267 29.535 25.8624 28.6393 25.2715C28.6114 25.2901 28.6021 25.3181 28.5742 25.3367C28.0516 25.8667 27.3795 26.2241 26.6481 26.3609C26.9151 26.9023 27.0451 27.5011 27.0266 28.1046C27.0081 28.7081 26.8418 29.2978 26.5423 29.8219C26.2427 30.346 25.8191 30.7885 25.3087 31.1104C24.7983 31.4323 24.2166 31.6238 23.6149 31.6681C23.8167 32.4573 23.7538 33.291 23.4358 34.0409C23.1179 34.7908 22.5625 35.4153 21.8551 35.8185C21.1477 36.2216 20.3276 36.381 19.5208 36.272C18.7141 36.1631 17.9655 35.7919 17.3902 35.2156L14.0964 31.9195L11.426 34.6011C11.1541 34.8738 10.8282 35.0867 10.4694 35.2262C10.1105 35.3657 9.72644 35.4287 9.34183 35.4111C9.17435 35.4018 8.96965 35.3925 8.83008 35.3925C6.60916 35.3912 4.4787 36.2729 2.90739 37.8436C1.33609 39.4142 0.452644 41.5452 0.45141 43.7677C0.450176 45.9901 1.33125 48.1221 2.90081 49.6945C4.47038 51.2669 6.59985 52.1509 8.82078 52.1522H8.84869C11.068 52.1497 13.1956 51.2657 14.764 49.6945C16.3324 48.1232 17.2134 45.9932 17.2134 43.7723C17.2134 43.6047 17.2041 43.4371 17.1948 43.2695C17.1751 42.8844 17.237 42.4995 17.3766 42.14C17.5161 41.7806 17.73 41.4547 18.0043 41.1839L31.8679 27.3106C32.0423 27.1372 32.2781 27.0398 32.5239 27.0398C32.7697 27.0398 33.0055 27.1372 33.1799 27.3106C33.3542 27.4864 33.452 27.724 33.452 27.9717C33.452 28.2193 33.3542 28.4569 33.1799 28.6327L23.3078 38.5116L33.8405 49.0423L45.7037 37.1616ZM14.6845 45.8207L10.8854 49.6215C10.711 49.7961 10.4744 49.8942 10.2276 49.8943C10.1466 49.8943 10.0658 49.8837 9.98756 49.8626L4.79846 48.4743C4.64073 48.432 4.4969 48.3489 4.38143 48.2334C4.26596 48.1178 4.18291 47.9739 4.14063 47.8161L2.75054 42.6234C2.70845 42.4656 2.70856 42.2995 2.75086 42.1418C2.79316 41.9841 2.87616 41.8403 2.99153 41.7248L6.78961 37.9232C6.90509 37.8076 7.04895 37.7244 7.20673 37.6821C7.36451 37.6398 7.53064 37.6397 7.68843 37.682L12.8775 39.0731C13.0353 39.1154 13.1791 39.1985 13.2946 39.3141C13.41 39.4296 13.4931 39.5735 13.5354 39.7314L14.9254 44.9241C14.9677 45.082 14.9677 45.2482 14.9254 45.4061C14.8831 45.564 14.8 45.708 14.6845 45.8235V45.8207Z" fill="#444444"/>
<path d="M7.72563 39.6201L4.68679 42.6611L5.79868 46.8156L9.95033 47.9283L12.9892 44.8873L11.8764 40.7337L7.72563 39.6201Z" fill="#444444"/>
<path d="M52.9146 41.7993L48.3089 37.1904L33.8405 51.6782L34.5011 52.33C34.5879 52.4171 34.6566 52.5205 34.7032 52.6343C34.7499 52.7481 34.7735 52.87 34.7728 52.9929L53.5846 53.0004L53.5771 42.0712C53.4542 42.0719 53.3324 42.0483 53.2187 42.0016C53.105 41.9549 53.0017 41.8862 52.9146 41.7993Z" fill="#444444"/>
</svg>
